{"title":"13 2010 720p BRRip H264 [ChattChitto RG]","uid":6319535,"size":2102656228,"categoryP":"video","categoryS":"hd___movies","magnet":"?xt=urn:btih:ab0f0e620405ac0e8f864425949163549b308c1b&amp;dn=13+2010+720p+BRRip+H264+%5BChattChitto+RG%5D&amp;tr=udp%3A%2F%2Ftracker.openbittorrent.com%3A80&amp;tr=udp%3A%2F%2Fopen.demonii.com%3A1337&amp;tr=udp%3A%2F%2Ftracker.coppersurfer.tk%3A6969&amp;tr=udp%3A%2F%2Fexodus.desync.com%3A6969","seeders":0,"leechers":0,"uploader":"ChattChitto","files":-1,"time":1302892153,"description":"General                          : ChattChitto RG - Movies [R2L]\n==========\nComplete name                    : 13 2010 720p BRRip H264 [ChattChitto RG]\nFormat                           : MPEG-4\nFormat profile                   : Base Media\nCodec ID                         : isom\nFile size                        : 1.86 GiB\nDuration                         : 1h 37mn\nOverall bit rate                 : 2 735 Kbps\nEncoded date                     : UTC 2011-04-11 02:14:01\n\nVideo\n==========\nID                               : 1\nFormat                           : AVC\nFormat/Info                      : Advanced Video Codec\nFormat profile                   : &lt;a class=&quot;__cf_email__&quot; href=&quot;/cdn-cgi/l/email-protection&quot; data-cfemail=&quot;a5edccc2cde5e9918b94&quot;&gt;[email&amp;#160;protected]&lt;/a&gt;&lt;script cf-hash='f9e31' type=&quot;text/javascript&quot;&gt;\n/* &lt;![CDATA[ */!function(){try{var t=&quot;currentScript&quot;in document?document.currentScript:function(){for(var t=document.getElementsByTagName(&quot;script&quot;),e=t.length;e--;)if(t[e].getAttribute(&quot;cf-hash&quot;))return t[e]}();if(t&amp;&amp;t.previousSibling){var e,r,n,i,c=t.previousSibling,a=c.getAttribute(&quot;data-cfemail&quot;);if(a){for(e=&quot;&quot;,r=parseInt(a.substr(0,2),16),n=2;a.length-n;n+=2)i=parseInt(a.substr(n,2),16)^r,e+=String.fromCharCode(i);e=document.createTextNode(e),c.parentNode.replaceChild(e,c)}}}catch(u){}}();/* ]]&gt; */&lt;/script&gt;\nFormat settings, CABAC           : Yes\nFormat settings, ReFrames        : 4 frames\nFormat settings, GOP             : M=1, N=25\nCodec ID                         : avc1\nCodec ID/Info                    : Advanced Video Coding\nDuration                         : 1h 37mn\nBit rate mode                    : Variable\nBit rate                         : 2 400 Kbps\nMaximum bit rate                 : 14.6 Mbps\nWidth                            : 1 280 pixels\nHeight                           : 528 pixels\nDisplay aspect ratio             : 2.40:1\nFrame rate mode                  : Constant\nFrame rate                       : 24.000 fps\nColor space                      : YUV\nChroma subsampling               : 4:2:0\nBit depth                        : 8 bits\nScan type                        : Progressive\nBits/(Pixel*Frame)               : 0.148\nStream size                      : 1.63 GiB (88%)\nWriting library                  : x264 core 114 r1913 5fd3dce\nEncoded date                     : UTC 2011-04-10 10:03:55\n\nAudio\n==========\nID                               : 2\nFormat                           : AAC\nFormat/Info                      : Advanced Audio Codec\nFormat profile                   : LC\nCodec ID                         : 40\nDuration                         : 1h 37mn\nBit rate mode                    : Variable\nBit rate                         : 332 Kbps\nMaximum bit rate                 : 485 Kbps\nChannel(s)                       : 6 channels\nChannel positions                : Front: L C R, Side: L R, LFE\nSampling rate                    : 48.0 KHz\nCompression mode                 : Lossy\nStream size                      : 231 MiB (12%)\nEncoded date                     : UTC 2011-04-11 02:14:24\n\nSubtitles                        : None\n\n\n----------------------------------------------------\nIMDB Link: http://www.imdb.com/title/tt0798817/\n----------------------------------------------------\n\n\n\nScreen Shots:\n==============    &lt;a href=&quot;\nhttp://chattchitto.net/chattchittorg/movies/brrip/2011/13/1.png&quot; rel=&quot;nofollow&quot; target=&quot;_NEW&quot;&gt;\nhttp://chattchitto.net/chattchittorg/movies/brrip/2011/13/1.png&lt;/a&gt; &lt;a href=&quot;\nhttp://chattchitto.net/chattchittorg/movies/brrip/2011/13/2.png&quot; rel=&quot;nofollow&quot; target=&quot;_NEW&quot;&gt;\nhttp://chattchitto.net/chattchittorg/movies/brrip/2011/13/2.png&lt;/a&gt; &lt;a href=&quot;\nhttp://chattchitto.net/chattchittorg/movies/brrip/2011/13/3.png&quot; rel=&quot;nofollow&quot; target=&quot;_NEW&quot;&gt;\nhttp://chattchitto.net/chattchittorg/movies/brrip/2011/13/3.png&lt;/a&gt; &lt;a href=&quot;\nhttp://chattchitto.net/chattchittorg/movies/brrip/2011/13/4.png&quot; rel=&quot;nofollow&quot; target=&quot;_NEW&quot;&gt;\nhttp://chattchitto.net/chattchittorg/movies/brrip/2011/13/4.png&lt;/a&gt; &lt;a href=&quot;\nhttp://chattchitto.net/chattchittorg/movies/brrip/2011/13/5.png&quot; rel=&quot;nofollow&quot; target=&quot;_NEW&quot;&gt;\nhttp://chattchitto.net/chattchittorg/movies/brrip/2011/13/5.png&lt;/a&gt; &lt;a href=&quot;\nhttp://chattchitto.net/chattchittorg/movies/brrip/2011/13/6.png&quot; rel=&quot;nofollow&quot; target=&quot;_NEW&quot;&gt;\nhttp://chattchitto.net/chattchittorg/movies/brrip/2011/13/6.png&lt;/a&gt; &lt;a href=&quot;\nhttp://chattchitto.net/chattchittorg/movies/brrip/2011/13/7.png&quot; rel=&quot;nofollow&quot; target=&quot;_NEW&quot;&gt;\nhttp://chattchitto.net/chattchittorg/movies/brrip/2011/13/7.png&lt;/a&gt;\n\n\n\nScreenShots Comparison:\n=========================  &lt;a href=&quot;\nhttp://screenshotcomparison.com/comparison/43912&quot; rel=&quot;nofollow&quot; target=&quot;_NEW&quot;&gt;\nhttp://screenshotcomparison.com/comparison/43912&lt;/a&gt;\n\n\n\nPlot:\n======\nA naive young man assumes a dead man's identity and finds himself embroiled in an underground world of power, violence, and chance where men gamble behind closed doors on the lives of other men.\n\n\n\nRelease Info:\n==============\noriginal name .... : 13 2010 720p BRRip H264 [ChattChitto RG]\nripper.............: BRMP\nencoder............: Recalled2Life (R2L)\nvideo codec........: H264/.MP4\nvideo bitrate......: 2400\naudio codec........: AAC-LC\naspect ratio.......: 2.40:1\nresolution.........: 1280 x 528\ngenre..............: Drama | Thriller\nruntime............: 1h 37mn\nlanguage...........: English\nrating.............: R\nsubtitles..........: None\nsample.............: Yes\n2ch Audio..........: 2ch Audio for XBox Viewers\nCompatibility .....: XBox | PS3 | WD Live\n\n\n\nSource:\n========\n13.2010.720p.BluRay.x264.REPACK-BRMP  THANKS!\n\n\n\nNotes:\n=======\nChattChitto RG Encourages Burning this Film with ConvertXtoDVD and Playing with VLC media player.\nXBox 360 | PS3 | WD Live - Compatible \nEnhanced for your viewing pleasure ;)","torrent":{"xt":"urn:btih:ab0f0e620405ac0e8f864425949163549b308c1b","amp;dn":"13+2010+720p+BRRip+H264+%5BChattChitto+RG%5D","amp;tr":["udp%3A%2F%2Ftracker.openbittorrent.com%3A80","udp%3A%2F%2Fopen.demonii.com%3A1337","udp%3A%2F%2Ftracker.coppersurfer.tk%3A6969","udp%3A%2F%2Fexodus.desync.com%3A6969"],"infoHash":"ab0f0e620405ac0e8f864425949163549b308c1b","infoHashBuffer":{"type":"Buffer","data":[171,15,14,98,4,5,172,14,143,134,68,37,148,145,99,84,155,48,140,27]},"announce":[],"urlList":[]}}